# xmcd
#
# Track frame offsets: 
#        150
#        15909
#        29713
#        44100
#        54056
#        65789
#        77904
#        90054
#        102499
#        115591
#        126187
#        139913
#        152849
#        164403
#        174056
#        183209
#        197189
#        208109
#        220363
#        231373
#        245065
#        261937
#        285651
#
# Disc length: 4111 seconds
#
# Revision: 2
# Processed by: cddbd v1.5.2PL0 Copyright (c) Steve Scherf et al.
# Submitted via: ExactAudioCopyFreeDBPlugin 1.0
#
DISCID=4d100d17
DTITLE=Mitty Collier - Shades Of A Genius
DYEAR=1998
DGENRE=Soul
TTITLE0=I Had A Talk With My Man Last Night
TTITLE1=Little Miss Loneliness
TTITLE2=I Got To Get Away From It All
TTITLE3=My Babe
TTITLE4=Let's Get Together
TTITLE5=Would You Have Listened
TTITLE6=Let Them Talk
TTITLE7=So Little Time
TTITLE8=It Looks Like Rain
TTITLE9=I've Got Love
TTITLE10=That's What A Man Is For
TTITLE11=I'm Your Part Time Love
TTITLE12=Pain
TTITLE13=Don't You Forget It
TTITLE14=One More Time
TTITLE15=I Dedicate My Whole Life To You
TTITLE16=Don't Let Her Take My Baby
TTITLE17=Free Girl In The Morning
TTITLE18=Hallelujah (I Love Him So)
TTITLE19=Drown In My Own Tears
TTITLE20=No Faith, No Love
TTITLE21=Ain't That Love
TTITLE22=Data Track
EXTD=YEAR: 1998
EXTT0=
EXTT1=
EXTT2=
EXTT3=
EXTT4=
EXTT5=
EXTT6=
EXTT7=
EXTT8=
EXTT9=
EXTT10=
EXTT11=
EXTT12=
EXTT13=
EXTT14=
EXTT15=
EXTT16=
EXTT17=
EXTT18=
EXTT19=
EXTT20=
EXTT21=
EXTT22=
PLAYORDER=
